<svg width="512" height="512" viewBox="0 0 512 512" fill="none" xmlns="http://www.w3.org/2000/svg">
<path d="M318.033 38C326.448 38.6586 331.142 39.3591 339.443 40.969C341.69 46.4783 342.934 51.9666 348.182 54.4128C353.054 54.7265 357.476 52.1234 362.128 50.0744C369.111 53.8169 373.167 57.4236 378.781 62.7342C378.802 67.3967 378.353 72.9895 378.102 77.7252C402.972 90.0504 398.476 99.5846 387.855 121.078C387.458 121.872 392.005 130.466 392.779 131.699C399.888 142.895 404.007 152.68 407.854 165.319C487.116 171.111 542.02 266.232 494.089 334.486C476.735 359.209 450.245 370.165 421.235 374.295C419.468 382.25 417.942 386.17 413.279 392.788C434.595 398.171 460.563 393.802 469.125 417.522L469.94 421.787C476.568 426.01 488.747 425.78 497.068 427.641C477.415 437.039 453.308 447.891 432.316 452.95C309.335 482.587 140.399 486.487 25.7467 428.049C30.2179 427.035 45.1901 424.536 47.0728 421.923C47.7638 397.868 76.803 394 95.6933 390.78C93.9203 384.55 91.5953 378.079 89.5014 371.901C15.9994 359.899 -21.843 300.008 13.2197 229.413C29.4892 196.65 63.0591 177.488 97.4329 167.389C105.081 133.832 125.782 104.707 154.957 86.4439C188.547 65.0132 235.739 58.4899 274.21 67.0935L275.297 53.7124C281.256 49.2799 284.695 47.0742 291.124 43.3526C298.578 47.0742 302.007 51.7575 309.795 50.1789C313.695 47.3145 315.66 42.4325 318.033 38Z" fill="#082746"/>
<path d="M469.125 417.522L469.94 421.787C476.568 426.01 488.747 425.78 497.068 427.641C477.415 437.039 453.308 447.891 432.316 452.95C309.336 482.587 140.399 486.487 25.7471 428.049C30.2182 427.035 45.1904 424.536 47.0732 421.923C59.8155 426.084 90.1374 424.86 105.204 425.415C106.463 427.913 107.833 430.359 109.308 432.732C111.656 436.517 115.839 441.785 120.585 441.984C200.845 445.371 281.936 447.023 362.285 446.584C378.092 442.873 382.2 430.746 399.344 428.185C412.59 426.199 457.772 431.446 466.553 425.759C468.832 422.728 468.675 421.264 469.125 417.522Z" fill="#9CD5F0"/>
<path d="M107.484 180.509C112.079 129.692 151.973 90.4372 200.31 78.6033C214.015 75.2476 244.542 70.4492 257.327 74.9026C260.17 77.882 259.219 77.307 259.491 82.7326C259.209 88.5764 257.003 102.282 262.23 105.616L267.081 107.404C271.743 108.658 271.565 107.801 274.2 110.802C274.44 114.69 272.37 118.956 270.949 122.73C277.022 130.319 281.277 134.543 289.442 140.021C294.23 137.815 298.432 135.337 303.586 135.118C310.402 137.909 309.649 142.854 310.433 149.659C318.577 151.3 325.874 152.597 334.185 153.287C336.871 148.603 340.3 142.101 343.541 137.992C349.813 141.045 353.723 143.084 358.814 148.237C366.843 144.328 371.432 141.704 378.332 135.734C385.577 148.541 391.117 159.224 395.696 173.379C397.327 178.418 397.379 183.614 398.289 186.457C423.556 176.798 456.36 198.019 471.184 217.83C483.353 232.34 488.852 241.299 493.284 260.106C501.929 308.999 465.508 348.369 417.116 350.135C401.718 330.848 397.682 327.335 375.332 316.808C363.54 315.24 359.504 318.815 351.444 317.069C348.904 314.017 349.73 314.079 349.291 309.208C348.444 301.232 347.367 293.286 346.081 285.373C342.611 276.989 337.969 273.204 330.359 269.096C334.948 268.166 342.036 267.35 346.845 266.66L349.04 261.381C356.222 256.081 355.992 226.036 352.856 217.432C348.308 204.919 344.576 197.246 332.522 190.618C314.531 180.718 295.149 189.907 286.389 207.208C278.507 223.726 280.535 239.229 286.284 256.07C288.145 259.154 290.048 262.447 292.024 265.437C286.284 265.374 279.322 265.479 273.698 265.176C251.786 264.946 221.267 266.807 198.502 267.256C219.709 222.199 182.076 169.375 147.265 199.66C147.947 202.243 147.953 206.55 147.766 209.236C156.349 201.02 160.334 199.765 171.874 196.639C147.044 215.666 149.286 245.491 165.774 269.138L149.35 269.64C139.803 271.574 126.885 271.793 116.948 273.267C97.2032 276.194 81.5149 271.657 72.723 293.569C73.0471 298.984 73.2583 304.42 73.3576 309.846C75.9575 321.962 78.8313 334.026 81.9738 346.006C39.0382 336.775 16.1544 306.438 19.3199 262.824C21.0877 252.715 24.0482 242.375 29.7624 233.761C43.4927 204.501 76.2147 184.899 107.484 180.509Z" fill="#A8EAFB"/>
<path d="M107.483 180.509C112.079 129.692 151.972 90.4372 200.31 78.6033C214.015 75.2476 244.542 70.4492 257.327 74.9026C260.17 77.882 259.219 77.307 259.491 82.7326L257.996 86.0256C254.588 86.7783 242.022 86.6216 236.774 87.1234C217.513 88.911 198.662 93.7407 180.921 101.435C189.146 105.648 195.526 110.049 189.422 120.607C184.197 129.64 172.012 134.867 162.399 137.606C152.196 140.282 148.411 136.278 140.961 130.737C126.032 142.55 113.539 174.142 112.791 193.064C96.4984 197.894 80.7024 202.431 66.4013 212.561C60.2711 216.91 47.996 234.033 43.8437 235.654L44.6309 235.643L43.665 233.375L46.5001 230.092L42.2087 230.928C34.4059 231.002 35.1209 232.883 29.7622 233.761C43.4925 204.501 76.2145 184.899 107.483 180.509Z" fill="white"/>
<path d="M363.121 273.016C377.506 244.257 420.472 225.336 432.818 267.591C436.644 280.669 430.445 301.064 420.294 310.577C419.04 309.804 389.58 305.476 386.538 305.539C380.266 309.333 380.109 312.992 375.331 316.808C363.539 315.24 359.504 318.815 351.444 317.069C348.904 314.017 349.73 314.08 349.291 309.208C348.444 301.232 347.367 293.286 346.081 285.373C342.611 276.989 337.969 273.204 330.358 269.096C334.948 268.166 342.036 267.35 346.844 266.66C352.803 267.988 358.072 269.242 363.121 273.016Z" fill="#71BEE2"/>
<path d="M346.844 266.66C352.803 267.988 358.072 269.242 363.121 273.016L362.818 279.195C357.894 285.383 353.639 285.122 346.081 285.373C342.611 276.989 337.969 273.204 330.358 269.096C334.948 268.166 342.036 267.35 346.844 266.66Z" fill="#F09BA4"/>
<path d="M346.081 285.373C353.64 285.122 357.894 285.383 362.818 279.195C363.822 288.896 362.149 295.722 355.657 303.437C353.807 305.643 351.664 307.577 349.291 309.208C348.444 301.232 347.367 293.286 346.081 285.373Z" fill="#9CD5F0"/>
<path d="M493.284 260.106C501.929 308.999 465.508 348.369 417.116 350.135C401.717 330.848 397.682 327.335 375.332 316.808C380.109 312.992 380.266 309.333 386.538 305.539C389.58 305.476 419.04 309.804 420.294 310.577L415.788 314.184L416.196 315.407L417.053 315.825C438.359 314.958 464.431 298.524 472.815 279.048C481.21 259.583 489.28 265.165 493.284 260.106Z" fill="#208FD4"/>
<path d="M19.3199 262.824C23.9395 267.674 27.1248 273.1 31.1162 278.452C41.4301 292.283 56.1827 305.643 73.3576 309.846C75.9575 321.962 78.8313 334.026 81.9738 346.006C39.0382 336.775 16.1544 306.438 19.3199 262.824Z" fill="#208FD4"/>
<path d="M29.7626 233.761C35.1213 232.883 34.4062 231.002 42.2091 230.928C40.918 254.032 38.2575 275.546 55.3278 293.496C59.7331 298.127 62.6561 301.451 69.0194 302.883L71.705 302.298L72.7232 293.569C73.0473 298.984 73.2585 304.42 73.3578 309.846C56.1829 305.643 41.4303 292.283 31.1163 278.452C27.125 273.1 23.9397 267.674 19.3201 262.824C21.0878 252.715 24.0484 242.376 29.7626 233.761Z" fill="#71BEE2"/>
<path d="M171.874 196.639C147.044 215.666 149.286 245.491 165.774 269.138L149.35 269.64C145.59 269.012 143.892 270.706 140.185 267.946C139.86 266.639 139.56 265.333 139.285 264.015C134.745 242.24 135.634 228.001 147.766 209.236C156.349 201.02 160.334 199.765 171.874 196.639Z" fill="white"/>
<path d="M465.372 218.216L466.177 216.931L471.184 217.83C483.353 232.34 488.851 241.299 493.284 260.106C489.28 265.165 481.21 259.583 472.815 279.048C464.431 298.524 438.359 314.958 417.053 315.825C421.664 311.382 428.166 308.215 434.292 306.302C473.097 294.186 478.397 252.892 465.372 218.216Z" fill="#71BEE2"/>
<path d="M358.814 148.237C366.843 144.328 371.432 141.704 378.332 135.734C385.577 148.541 391.117 159.224 395.696 173.379C397.327 178.418 397.379 183.614 398.289 186.457C394.745 189.112 390.093 192.374 386.925 195.301L385.545 196.085C386.089 196.409 364.198 155.21 358.814 148.237Z" fill="#59A8D6"/>
<path d="M398.289 186.457C423.556 176.798 456.361 198.019 471.184 217.829L466.177 216.93L465.372 218.216C459.445 220.014 441.558 205.787 431.71 202.473C412.966 196.179 406.579 194.726 386.925 195.301C390.093 192.374 394.745 189.112 398.289 186.457Z" fill="white"/>
<path d="M147.265 199.661C147.947 202.243 147.953 206.55 147.766 209.236C135.634 228.001 134.746 242.24 139.285 264.015C139.56 265.333 139.86 266.639 140.185 267.946C127.165 249.599 130.832 215.216 147.265 199.661Z" fill="#02192D"/>
<path d="M286.285 256.07C288.145 259.154 290.048 262.447 292.024 265.437C286.285 265.374 279.322 265.479 273.698 265.176C277.827 262.207 283.671 260.043 286.285 256.07Z" fill="#9CD5F0"/>
<path d="M262.23 105.616L267.08 107.404L266.317 109.223C262.617 111.199 245.138 111.523 242.022 109.589C246.402 107.101 255.456 108.282 262.23 105.616Z" fill="#D2EEF7"/>
<path d="M161.233 163.929C178.472 162.789 182.225 165.256 193.34 178.491C181.478 172.888 176.883 171.268 164.174 171.623C151.753 175.585 148.976 177.864 138.709 185.861C145.996 173.212 147.943 169.783 161.233 163.929Z" fill="#02192D"/>
<path d="M307.83 156.622C325.267 155.524 330.923 161.211 341.011 174.602C333.474 169.867 329.188 167.515 320.751 164.974C305.091 162.695 299.122 166.793 285.406 174.017C293.55 163.751 296.017 161.211 307.83 156.622Z" fill="#082746"/>
<path d="M212.099 103.317C217.183 103.233 221.296 103.526 225.446 106.484C227.492 113.3 217.739 115.14 212.638 116.844C207.695 118.015 204.432 118.412 200.092 115.747C195.717 107.342 206.057 104.686 212.099 103.317Z" fill="white"/>
<path d="M85.1505 308.936C83.5939 300.04 85.1589 286.941 95.8565 285.78C169.475 277.846 244.573 277.658 318.587 278.536C329.25 278.672 333.495 286.491 335.585 295.325C338.659 334.946 344.482 375.047 344.022 414.783C343.823 431.906 326.825 432.053 314.123 431.509C251.378 428.833 186.957 429.732 124.391 426.021C121.673 423.805 117.852 420.679 116.21 417.647C110.713 407.486 97.8646 364.51 96.8025 354.275C92.762 339.336 88.4247 324.032 85.1505 308.936Z" fill="#6998B5"/>
<path d="M85.1505 308.936C83.5939 300.04 85.1589 286.941 95.8565 285.78C169.475 277.846 244.573 277.658 318.587 278.536C329.25 278.672 333.495 286.491 335.585 295.325C333.651 300.134 335.219 298.294 330.505 300.887C324.441 300.604 321.911 295.053 315.733 291.248C284.925 291.091 102.619 288.54 90.4361 299.956C89.4199 300.907 88.4864 301.953 87.6438 303.061C87.0155 304.577 85.8603 307.629 85.1505 308.936Z" fill="white"/>
<path d="M87.6444 303.061C87.7364 319.505 98.6524 343.79 96.8031 354.275C92.7627 339.336 88.4253 324.032 85.1511 308.936C85.8609 307.629 87.0161 304.577 87.6444 303.061Z" fill="#E6EFF4"/>
<path d="M324.504 328.59C327.609 339.127 333.735 405.343 328.623 413.79C317.427 420.48 273.499 417.072 258.947 416.832C215.79 416.205 172.64 415.076 129.507 413.466C125.808 413.131 124.282 413.121 120.685 411.918C119.04 408.28 119.216 410.068 119.701 406.42C122.93 404.987 141.195 404.684 146.022 404.412C214.121 400.524 280.232 384.383 324.504 328.59Z" fill="#22557B"/>
<path d="M206.257 332.092C217.197 331.485 226.233 334.611 231.474 344.95C234.401 350.731 234.924 357.432 232.938 363.6C230.23 371.911 225.709 375.089 218.418 378.884C187.383 380.358 179.031 343.967 206.257 332.092Z" fill="white"/>
<path d="M290.612 52.1651C322.424 70.1669 316.779 38.9095 331.937 48.1195C344.335 55.6463 336.14 67.5221 361.773 59.4725C365.024 61.3647 368.589 63.3509 371.714 65.379C355.824 88.9946 391.096 84.5412 383.977 99.6682C373.377 101.843 370.46 100.975 365.107 110.896L370.836 121.224L361.731 127.047C348.789 117.879 338.533 116.269 331.77 132.724L317.908 132.128C317.845 131.825 317.772 131.521 317.709 131.229L317.343 129.734C314.542 117.858 312.419 118.109 301.432 115.119C297.376 116.719 292.609 119.154 288.605 121.057L280.859 113.509L286.786 104.811L286.368 103.578C284.884 99.2918 283.117 94.5143 278.831 92.2666C274.67 90.0818 270.196 91.8276 268.084 85.9002C267.195 83.3912 267.572 84.3008 268.189 81.2064C272.381 77.3698 275.496 77.2443 280.995 76.5125C284.612 74.1186 285.385 72.0382 287.717 68.2015C285.877 64.6367 284.068 60.9779 281.998 57.5385L290.612 52.1651Z" fill="#B5CDDE"/>
<path d="M286.786 104.812C303.806 106.798 351.748 116.646 365.108 110.896L370.837 121.224L361.731 127.047C348.789 117.879 338.534 116.269 331.77 132.724L317.908 132.128C317.845 131.825 317.772 131.521 317.709 131.229L317.344 129.734C314.542 117.858 312.42 118.109 301.433 115.119C297.376 116.719 292.609 119.154 288.605 121.057L280.859 113.509L286.786 104.812Z" fill="#59A8D6"/>
<path d="M315.859 71.0033C345.172 67.0517 366.383 94.6294 336.715 107.185C308.667 109.997 286.964 85.1581 315.859 71.0033Z" fill="#082746"/>
<path d="M351.361 334.235C356.347 332.071 359.316 330.712 364.658 329.28C380.485 333.743 393.793 344.49 401.488 359.021C408.753 372.549 404.268 382.062 392.131 390.205C385.054 395.244 373.335 405.521 364.491 405.301C352.448 405.008 353.744 389.976 353.629 381.644C352.803 367.677 350.817 347.501 351.361 334.235Z" fill="white"/>
<path d="M353.629 381.644C366.393 392.871 375.635 390.948 392.131 390.205C385.054 395.244 373.335 405.521 364.491 405.301C352.448 405.008 353.744 389.976 353.629 381.644Z" fill="#D2EEF7"/>
<path d="M321.629 266.817C338.889 245.313 340.54 209.341 314.27 194.664L313.067 194.016C333.39 188.391 345.276 212.111 349.155 228.367C351.789 239.396 350.754 250.3 349.04 261.381L346.844 266.66C342.035 267.35 334.948 268.166 330.358 269.096C328.226 268.803 323.898 267.455 321.629 266.817Z" fill="white"/>
<path d="M398.226 402.228C409.945 401.517 452.566 404.548 455.723 417.26C453.548 419.571 453.036 418.808 448.813 419.163C434.867 419.32 400.912 421.066 390.793 414.26C388.953 410.57 389.131 412.42 390.03 408.573C392.978 404.789 393.877 404.611 398.226 402.228Z" fill="#22557B"/>
<path d="M93.5642 399.238C96.0972 398.997 95.1741 398.893 97.5294 399.875C100.642 404.172 102.06 410.152 103.715 415.337C91.5831 415.807 79.445 416.11 67.3048 416.236L56.1724 416.309C68.4276 405.771 78.1258 402.301 93.5642 399.238Z" fill="#22557B"/>
<path d="M352.866 414.982C360.309 415.4 375.049 414.25 380.778 417.093L381.29 419.048C379.273 422.446 375.844 423.982 372.384 426.063C366.048 429.335 353.295 438.053 349.029 429.471C348.946 424.495 351.141 419.78 352.866 414.982Z" fill="#3D7DB3"/>
<path d="M175.89 207.553C189.714 207.637 192.783 219.304 184.557 228.9C169.897 230.259 167.085 216.073 175.89 207.553Z" fill="white"/>
<path d="M300.136 204.187C315.075 207.397 313.057 219.304 303.565 227.395C289.463 224.207 290.393 212.791 300.136 204.187Z" fill="white"/>
</svg>
