<svg width="512" height="512" viewBox="0 0 512 512" fill="none" xmlns="http://www.w3.org/2000/svg">
<path d="M328.451 36C336.497 36.916 343.181 37.4238 350.978 39.6972C352.976 44.531 354.259 49.2433 358.077 52.5762C363.83 54.6289 368.642 51.5498 374.414 49.1109C381.993 52.83 387.203 57.0569 392.903 63.2702C392.345 67.9274 391.836 73.3681 390.992 77.926C398.938 82.208 407.824 85.6403 410.3 95.2196C413.6 107.999 406.776 120.272 399.309 129.906C411.985 149.616 415.794 157.64 422.784 180.352C449.692 191.576 469.328 202.623 487.875 225.787C531.422 280.184 514.83 365.681 447.681 392.046C432.505 397.829 416.17 399.914 400.028 398.127C402.35 417.307 404.776 437.305 395.207 455.139C388.939 463.339 387.194 465.612 378.018 471.042C365.983 475.081 362.044 475.556 348.971 473.735C334.162 478.524 211.154 475.997 188.033 474.783C184.522 474.607 180.99 473.646 177.731 472.046C168.898 473.757 164.123 473.481 155.468 471.958C145.13 467.367 142.6 465.083 135.442 456.53C128.433 445.063 126.104 436.587 123.644 423.664C114.227 418.819 96.6114 404.097 92.4828 393.436C59.3889 386.693 34.0125 376.595 14.1487 347.67C-0.193772 326.271 -2.97817 297.897 2.85881 273.22C5.83745 265.308 2.80474 261.025 1.68899 253.532C0.903221 248.257 4.33543 237.32 6.33958 232.398C14.4963 212.357 34.6041 205.117 53.0398 197.502C67.7079 175.628 80.449 161.877 106.844 153.976C144.129 83.2786 204.915 56.6485 283.053 69.66C283.026 64.3186 282.867 58.4585 283.041 53.1722C289.206 48.4488 293.297 45.4027 299.913 41.3746C318.013 52.2561 318.174 54.2647 328.451 36Z" fill="#082746"/>
<path d="M216.832 431.908C217.336 429.381 217.272 429.524 218.623 427.339C227.391 426.335 251.561 430.043 263.172 429.138C271.463 428.498 296.548 424.282 301.585 424.801C306.59 434.976 310.084 442.459 316.519 451.883C329.187 465.8 331.362 467.919 348.971 473.735C334.162 478.524 211.154 475.997 188.033 474.783C184.523 474.607 180.99 473.647 177.731 472.046C191.715 467.4 196.105 463.637 205.625 453.009C210.656 445.505 213.395 440.119 216.832 431.908Z" fill="#D2EEF7"/>
<path d="M216.832 431.908C223.929 441.896 226.203 443.816 235.787 451.994C225.797 453.395 215.687 453.737 205.625 453.009C210.656 445.505 213.395 440.119 216.832 431.908Z" fill="white"/>
<path d="M301.481 451.784C300.568 443.937 298.706 432.129 301.585 424.801C306.59 434.976 310.084 442.459 316.519 451.883C312.52 452.49 305.744 451.961 301.481 451.784Z" fill="white"/>
<path d="M92.4827 393.436C104.271 393.734 116.068 393.558 127.843 392.918C124.798 404.495 123.823 411.646 123.644 423.664C114.227 418.819 96.6113 404.097 92.4827 393.436Z" fill="#D2EEF7"/>
<path d="M123.393 323.512C147.718 320.653 168.54 312.233 183.99 292.434C191.538 282.667 197.199 271.576 200.681 259.734C202.629 252.87 203.174 243.257 209.876 240.156C213.664 240.973 211.963 240.167 215.014 242.937C224.409 269.523 222.966 275.726 244.603 297.125C222.905 303.89 206.651 304.309 185.217 296.076C185.287 307.256 187.625 332.219 194.832 341.114L196.1 340.75C198.656 344.26 200.844 347.604 203.221 351.257C206.701 345.871 203.727 335.839 213.167 336.071C226.582 328.953 256.837 321.415 245.936 347.725C247.002 351.124 245.514 353.508 244.2 356.995C245.861 355.649 247.347 354.093 248.623 352.382C257.713 339.989 256.465 318.623 254.632 304.154C260.62 308.006 265.528 311.151 272.09 313.966C293.245 323.126 317.194 323.401 338.557 314.738C364.51 304.188 375.742 287.954 386.198 263.431C403.409 268.596 435.536 284.014 451.84 278.452C458.735 276.112 461.187 270.737 464.219 264.756C465.311 258.421 465.513 255.872 465.609 249.438C469.791 246.425 470.269 246.646 472.238 241.679C474.081 242.099 478.151 243.136 479.828 243.324C486.107 251.59 493.315 269.755 493.386 280.118C496.066 302.091 489.965 325.962 476.053 343.311C463.116 359.445 442.973 371.662 422.202 373.693C409.063 374.973 382.851 374.002 372.44 365.074C335.919 389.463 299.699 401.128 255.717 402.927C209.046 404.837 154.82 390.39 119.992 357.569C122.285 361.73 123.801 362.602 123.265 366.321C120.018 368.241 118.993 368.318 115.416 369.179C111.695 369.51 108.746 369.632 105.084 370.437C104.361 366.85 97.6745 357.989 95.0943 354.225C94.4233 353.707 91.1025 349.082 90.3642 348.089L88.0179 345.154C80.9195 334.603 78.4143 329.339 74.3343 317.332C73.0994 314.661 72.6888 311.692 72.0984 308.779C90.9204 320.047 101.438 322.717 123.393 323.512Z" fill="#A8EAFB"/>
<path d="M472.238 241.679C474.081 242.099 478.151 243.136 479.828 243.324C486.107 251.59 493.315 269.755 493.386 280.118C496.066 302.091 489.965 325.962 476.053 343.311C463.116 359.445 442.973 371.662 422.202 373.693C409.063 374.973 382.851 374.002 372.44 365.074C335.919 389.463 299.699 401.128 255.717 402.927C209.046 404.837 154.82 390.39 119.992 357.569C122.285 361.73 123.801 362.602 123.265 366.321C120.018 368.241 118.993 368.318 115.416 369.179C111.695 369.51 108.746 369.632 105.084 370.437C104.361 366.85 97.6745 357.989 95.0943 354.225C94.4233 353.707 91.1025 349.082 90.3642 348.089L88.0179 345.153C80.9195 334.603 78.4143 329.339 74.3343 317.332C73.0994 314.661 72.6888 311.692 72.0984 308.779C90.9204 320.046 101.438 322.717 123.393 323.512C121.241 324.637 116.71 324.538 113.975 324.693C125.145 341.799 139.411 357.238 157.405 366.85C213.371 396.736 294.03 393.988 340.001 346.632C356.923 329.206 366.735 296.253 390.166 288.638C401.251 285.029 417.428 288.991 427.361 295.116C431.438 310.842 429.951 315.091 423.281 328.897L424.37 329.869C453.272 332.583 483.12 289.289 474.07 260.308L472.91 261.986C470.623 260.783 470.181 260.606 467.601 260.805C466.077 263.145 465.814 263.178 465.281 265.848L464.219 264.756C465.311 258.421 465.513 255.872 465.609 249.438C469.791 246.425 470.269 246.645 472.238 241.679Z" fill="#71BEE2"/>
<path d="M493.386 280.118C496.066 302.091 489.965 325.962 476.053 343.311C463.116 359.445 442.973 371.662 422.202 373.693C409.063 374.973 382.851 374.002 372.439 365.074C391.399 349.833 414.8 335.188 425.9 314.771C425.622 317.552 425.214 319.969 424.756 322.717C419.237 329.107 419.187 334.14 411.256 342.273C443.29 339.04 468.597 327.562 486.533 298.769C489.912 293.339 489.565 286.662 493.386 280.118Z" fill="#208FD4"/>
<path d="M90.3638 348.089C95.1126 345.992 103.076 345.01 108.328 344.282C110.563 346.809 118.376 355.274 119.991 357.569C122.285 361.73 123.801 362.602 123.265 366.321C120.018 368.241 118.992 368.318 115.416 369.179C111.694 369.51 108.745 369.632 105.084 370.437C104.361 366.85 97.6741 357.989 95.0938 354.225C94.4228 353.707 91.1021 349.082 90.3638 348.089Z" fill="#208FD4"/>
<path d="M95.0942 354.225L96.8699 353.729C101.387 357.602 111.367 368.318 115.416 369.179C111.695 369.51 108.746 369.632 105.084 370.437C104.361 366.851 97.6745 357.989 95.0942 354.225Z" fill="#0971B2"/>
<path d="M74.334 317.332C78.8687 316.394 81.4832 318.17 86.2408 320.477C90.8903 328.257 99.5415 341.986 108.328 344.282C103.076 345.01 95.1127 345.992 90.3639 348.089L88.0176 345.154C80.9192 334.603 78.414 329.339 74.334 317.332Z" fill="#59A8D6"/>
<path d="M465.609 249.438C469.79 246.425 470.268 246.645 472.237 241.679C472.341 249.57 472.696 252.506 474.069 260.308L472.909 261.986C470.622 260.783 470.18 260.606 467.601 260.805C466.077 263.145 465.813 263.178 465.28 265.848L464.218 264.756C465.311 258.421 465.513 255.872 465.609 249.438Z" fill="#D2EEF7"/>
<path d="M213.167 336.071C226.582 328.953 256.837 321.415 245.936 347.725C247.002 351.124 245.514 353.508 244.2 356.995C223.806 372.755 204.722 362.977 194.832 341.114L196.1 340.75C198.656 344.26 200.844 347.604 203.221 351.257C206.701 345.871 203.727 335.839 213.167 336.071Z" fill="#F24F4A"/>
<path d="M194.832 341.114L196.1 340.75C198.656 344.26 200.844 347.604 203.221 351.256C206.701 345.871 203.727 335.839 213.167 336.071L209.184 341.048C194.853 358.938 229.709 367.976 245.936 347.725C247.002 351.124 245.514 353.508 244.2 356.995C223.806 372.755 204.722 362.977 194.832 341.114Z" fill="#02192D"/>
<path d="M225.73 241.459C209.823 166.656 308.377 117.921 354.343 180.33C359.566 185.991 362.694 193.209 365.035 200.493C371.384 214.255 370.274 236.79 365.076 250.806C351.061 288.594 306.724 308.116 269.038 293.714C251.706 287.027 237.797 273.64 230.448 256.578C228.407 251.943 226.537 246.436 225.73 241.459Z" fill="#082746"/>
<path d="M306.936 287.788C316.177 285.691 324.907 281.773 332.618 276.266C349.773 263.774 357.987 242.794 359.346 221.936C359.83 214.531 358.092 206.209 359.377 198.837L362.85 201.276L365.035 200.493C371.385 214.255 370.274 236.79 365.076 250.806C351.062 288.594 306.724 308.116 269.038 293.714C251.706 287.027 237.797 273.64 230.448 256.578C228.408 251.943 226.537 246.436 225.73 241.459C226.557 241.161 233.225 236.901 235.772 235.643C238.723 251.788 248.169 266.025 261.902 275.008C271 280.968 281.548 284.334 292.414 284.764C297.933 287.832 301.143 286.166 306.936 287.788Z" fill="#6EA2C9"/>
<path d="M261.902 275.008C271 280.968 281.547 284.334 292.413 284.764C297.932 287.832 301.143 286.166 306.936 287.788C296.135 291.176 268.879 287.038 261.444 277.48L261.902 275.008Z" fill="#9CD5F0"/>
<path d="M225.73 241.459C209.823 166.656 308.377 117.921 354.343 180.33C349.561 184.877 346.232 180.462 338.605 184.016C320.462 164.526 291.639 159.35 267.843 171.291C244.048 183.243 230.983 209.454 235.772 235.643C233.225 236.901 226.557 241.161 225.73 241.459Z" fill="white"/>
<path d="M354.343 180.33C359.566 185.991 362.694 193.209 365.035 200.493L362.85 201.276L359.377 198.837C358.091 206.209 359.829 214.531 359.346 221.936C357.986 242.794 349.772 263.774 332.618 276.266C324.907 281.773 316.176 285.691 306.936 287.788C301.143 286.166 297.932 287.832 292.413 284.764C316.672 285.702 339.103 271.918 349.222 249.846C359.339 227.774 355.148 201.784 338.605 184.016C346.232 180.462 349.561 184.877 354.343 180.33Z" fill="#DEECF6"/>
<path d="M289.04 183.012C294.399 182.46 299.807 183.398 304.675 185.704C306.797 186.709 309.661 189.236 309.92 191.565C311.977 209.995 291.769 218.923 278.016 222.443C241.405 225.545 258.493 189.611 289.04 183.012Z" fill="white"/>
<path d="M257.215 226.019C260.484 225.434 263.643 227.498 264.405 230.732C265.165 233.966 263.261 237.233 260.071 238.16C257.855 238.8 255.464 238.171 253.854 236.515C252.245 234.871 251.678 232.465 252.382 230.257C253.086 228.061 254.944 226.439 257.215 226.019Z" fill="white"/>
<path d="M57.0131 239.097C56.7041 236.735 56.5794 235.245 56.5739 232.829C56.511 213.416 64.2219 194.787 77.985 181.102C91.5593 167.506 110.069 160.001 129.28 160.299C147.468 160.597 162.684 167.208 175.237 180.396C180.606 186.598 183.058 190.384 185.836 198.352L186.856 203.031L188.083 205.282C192.77 216.396 191.954 222.719 192.12 234.605C190.351 253.764 182.039 270.903 167.134 283.296C152.844 295.105 134.359 300.579 115.941 298.471C98.0552 296.54 81.2461 287.755 70.2575 273.375C62.7375 263.409 58.1509 251.535 57.0131 239.097Z" fill="#082746"/>
<path d="M186.856 203.031L188.083 205.282C192.77 216.396 191.955 222.719 192.12 234.605C190.351 253.764 182.039 270.903 167.134 283.296C152.844 295.105 134.359 300.579 115.941 298.471C98.0552 296.54 81.2462 287.755 70.2576 273.375C62.7376 263.409 58.151 251.535 57.0132 239.097C66.4071 237.408 64.9934 241.072 68.0647 240.178C73.0652 266.135 95.2168 285.272 121.623 286.453L122.489 286.927C139.143 295.855 164.405 276.995 173.13 262.813C179.147 253.035 185.015 239.229 186.326 227.741C187.272 219.464 185.294 211.628 186.856 203.031Z" fill="#75A8CB"/>
<path d="M57.0131 239.097C56.7041 236.735 56.5794 235.245 56.5739 232.829C56.511 213.416 64.2219 194.787 77.985 181.102C91.5593 167.506 110.069 160.001 129.28 160.299C147.468 160.597 162.684 167.208 175.237 180.396C171.27 184.027 167.201 185.009 162.032 186.598C143.717 170.386 117.112 167.627 95.8645 179.745C74.6157 191.863 63.4383 216.164 68.0646 240.178C64.9933 241.072 66.407 237.408 57.0131 239.097Z" fill="white"/>
<path d="M175.237 180.396C180.606 186.598 183.058 190.384 185.836 198.352L186.856 203.031C185.294 211.628 187.272 219.464 186.326 227.741C185.015 239.229 179.147 253.035 173.13 262.813C164.405 276.995 139.143 295.855 122.489 286.927L121.623 286.453C145.805 287.523 168.041 273.243 177.121 250.806C186.201 228.37 180.156 202.645 162.032 186.598C167.201 185.009 171.27 184.027 175.237 180.396Z" fill="#D2EEF7"/>
<path d="M116.072 189.71C153.72 186.046 144.232 215.281 115.373 226.483C81.1055 237.088 82.8537 202.899 116.072 189.71Z" fill="white"/>
<path d="M87.01 232.243C91.3563 232.255 94.7468 231.912 97.9165 234.914C98.3304 239.108 98.3249 237.651 95.878 241.978C91.7127 241.912 90.3056 242.254 86.9217 239.793C85.4394 235.753 85.8544 237.122 87.01 232.243Z" fill="white"/>
<path d="M133.186 152.42C129.727 152.166 126.844 152.629 124.607 150.897C129.117 139.805 144.229 120.581 153.635 112.657C189.25 82.6827 222.343 74.8581 267.087 77.275C267.192 82.9254 267.07 88.8629 267.043 94.5465C266.693 110.162 270.535 108.209 283.365 113.032C282.086 116.641 280.148 121.618 279.249 125.227C287.55 137.201 291.644 136.141 298.455 143.348L297.853 143.867C264.748 147.299 247.8 157.805 226.616 183.265C212.869 181.047 205.449 182.151 191.632 184.457C187.151 178.652 183.66 173.808 178.299 168.764C182.246 170 188.001 172.318 191.833 171.777C190.098 163.08 142.035 152.971 133.186 152.42Z" fill="#A8EAFB"/>
<path d="M133.186 152.42C129.727 152.166 126.844 152.629 124.607 150.897C129.117 139.805 144.229 120.581 153.635 112.657C189.25 82.6827 222.343 74.8581 267.087 77.275C267.192 82.9254 267.07 88.8629 267.043 94.5465C251.649 94.7892 202.419 98.0779 191.851 109.666C194.887 115.261 206.425 114.709 202.078 125.878C195.407 143.028 162.415 156.095 151.091 136.726C143.325 145.323 142.188 150.974 133.186 152.42Z" fill="white"/>
<path d="M218.514 114.643C229.583 113.539 230.943 114.742 240.862 119.333C237.595 121.276 233.803 123.196 230.422 125.006C224.814 127.125 213.01 130.303 211.654 121.618C213.221 117.799 215.105 117.016 218.514 114.643Z" fill="white"/>
<path d="M246.479 120.459C252.838 119.753 263.857 118.362 268.835 122.501C262.276 123.417 251.709 124.752 246.479 120.459Z" fill="white"/>
<path d="M313.008 57.7963C315.311 57.4431 322.524 56.4058 323.907 55.4126C334.795 47.599 342.995 36.1215 349.635 56.8914C354.926 59.3524 357.345 60.4892 362.923 62.0453C374.384 58.2709 374.805 57.9176 385.11 65.0911C383.439 67.9936 381.064 71.8343 379.606 74.7367C381.822 79.3167 383.685 83.4993 386.475 87.7592C392.03 89.525 397.952 90.408 400.38 96.2571C396.676 104.755 386.335 99.7664 378.501 112.822C380.114 117.115 383.091 119.951 383.344 124.487C381.753 127.71 378.475 128.824 375.132 130.634C361.812 119.709 350.599 119.367 343.699 136.671L329.722 135.821C324.966 116.111 314.814 114.047 298.323 123.549C295.436 121.033 292.416 118.009 289.629 115.338C291.588 112.392 294.25 109.103 296.454 106.245L295.9 104.998C288.097 87.8585 274.524 95.3962 276.411 80.9169C285.506 74.4498 285.815 85.3203 296.684 67.4088L290.218 56.5823C293.046 54.96 296.927 52.9073 299.593 51.1857C304.013 53.3708 308.567 55.7105 313.008 57.7963Z" fill="#B1CBDC"/>
<path d="M296.454 106.245C305.939 109.732 323.771 110.703 334.574 114.246C343.309 117.104 369.97 115.592 378.502 112.822C380.114 117.115 383.091 119.951 383.344 124.487C381.753 127.71 378.475 128.824 375.132 130.634C361.812 119.709 350.599 119.367 343.699 136.671L329.722 135.821C324.967 116.111 314.815 114.047 298.323 123.549C295.436 121.033 292.416 118.009 289.629 115.338C291.588 112.392 294.25 109.103 296.454 106.245Z" fill="#59A8D6"/>
<path d="M327.705 70.5319C360.514 67.7508 378.215 99.6892 346.163 109.765C317.147 111.167 296.208 84.7463 327.705 70.5319Z" fill="#082746"/>
<path d="M20.1779 275.494C27.433 272.326 36.9461 271.731 45.2684 269.236C52.6956 286.872 56.875 296.595 72.0982 308.779C72.6886 311.692 73.0991 314.661 74.3341 317.332C78.4141 329.339 80.9193 334.603 88.0177 345.153L90.364 348.089C91.1023 349.082 94.423 353.707 95.094 354.225C97.6743 357.989 104.361 366.85 105.084 370.437C102.522 370.481 99.9609 370.459 97.4006 370.371C75.4189 369.609 54.851 360.582 40.3253 344.072C19.6647 320.598 18.7597 304.607 20.1779 275.494Z" fill="#A8EAFB"/>
<path d="M20.1779 275.494C28.9526 301.109 33.4885 324.847 60.6173 338.024C67.314 341.28 80.8906 345.142 88.0177 345.154L90.364 348.089C91.1023 349.082 94.423 353.707 95.094 354.225C97.6743 357.989 104.361 366.85 105.084 370.437C102.522 370.481 99.9609 370.459 97.4006 370.371C75.4189 369.609 54.851 360.582 40.3253 344.072C19.6647 320.598 18.7597 304.607 20.1779 275.494Z" fill="#71BEE2"/>
<path d="M322.449 423.377C332.892 418.577 368.952 395.82 376.544 397.156C378.525 399.274 378.257 401.515 378.497 404.539C383.509 416.502 387.801 430.175 382.348 442.701C373.793 462.346 354.978 460.878 339.946 450.184C331.257 445.074 325.547 432.692 322.449 423.377Z" fill="#0971B2"/>
<path d="M322.449 423.377C332.892 418.577 368.952 395.82 376.544 397.156C378.525 399.274 378.257 401.515 378.497 404.539C371.728 408.39 376.71 424.691 378.074 431.423C374.207 427.328 362.865 414.559 357.912 415.641C338.977 419.779 345.073 439.28 351.654 448.528L351.484 449.908C348.279 449.941 342.454 449.158 339.946 450.184C331.257 445.074 325.547 432.692 322.449 423.377Z" fill="#183B5E"/>
<path d="M141.058 401.647C159.494 406.525 181.148 418.014 198.8 426.169C196.625 434.943 194.778 444.412 187.378 450.471C167.006 464.133 145.873 459.951 139.971 434.502C137.297 428.785 140.119 408.611 141.058 401.647Z" fill="#183B5E"/>
<path d="M149.999 445.229C150.539 436.698 150.792 424.757 154.018 416.943L155.649 416.259C160.13 420.596 161.08 428.983 162.422 435.263C170.785 440.262 179.104 445.328 187.378 450.471C167.006 464.133 145.873 459.951 139.971 434.502C143.324 435.484 147.562 442.072 149.999 445.229Z" fill="#0971B2"/>
<path d="M381.414 205.492C390.934 207.876 394.471 209.322 403.041 213.593C417.729 220.225 448.089 232.464 453.135 248.709C454.012 253.985 453.582 260.518 448.825 263.763C440.682 264.822 398.521 246.866 385.37 242.827L384.75 215.899L381.414 205.492Z" fill="#183B5E"/>
<path d="M381.414 205.492C390.934 207.876 394.471 209.322 403.041 213.593C417.729 220.225 448.089 232.464 453.135 248.709C444.85 245.045 434.621 239.605 426.27 235.554C416.04 230.445 405.501 225.898 395.042 221.252L390.705 218.846C389.059 218.239 386.405 216.749 384.75 215.899L381.414 205.492Z" fill="#83ADCC"/>
<path d="M381.414 205.492C390.934 207.876 394.471 209.322 403.041 213.593L403.927 216.329C399.062 219.486 395.452 216.021 390.705 218.846C389.059 218.239 386.405 216.749 384.75 215.899L381.414 205.492Z" fill="#71BEE2"/>
<path d="M395.042 221.252C408.495 219.066 419.548 223.382 426.27 235.554C416.04 230.445 405.501 225.898 395.042 221.252Z" fill="#59A8D6"/>
<path d="M355.467 142.664C361.161 145.103 366.289 148.314 370.739 152.629C376.143 153.016 383.549 147.829 388.409 144.871C397.661 159.019 401.197 167.627 405.328 184.325C406.179 187.768 408.171 197.248 409.254 199.974L406.806 201.541C401.324 199.19 391.18 195.924 385.407 194.732C383.317 194.346 379.849 193.739 378.474 191.951C367.965 178.321 360.882 167.992 346.827 157.728C349.567 152.574 352.501 147.685 355.467 142.664Z" fill="#9CD5F0"/>
<path d="M355.467 142.664C361.161 145.103 366.289 148.314 370.739 152.629L369.099 154.759C370.59 162.716 389.662 182.504 386.855 193.474L385.407 194.732C383.317 194.346 379.849 193.739 378.474 191.951C367.965 178.321 360.882 167.992 346.827 157.728C349.567 152.574 352.501 147.685 355.467 142.664Z" fill="#A8EAFB"/>
<path d="M194.283 197.745C202.376 193.717 213.211 189.865 219.751 198.396L220.668 202.468C221.85 206.088 222.43 215.711 220.426 218.636C213.028 229.429 196.239 218.338 192.12 234.605C191.954 222.719 192.77 216.396 188.083 205.282L186.856 203.031L185.836 198.352C190.175 199.4 189.971 199.257 194.283 197.745Z" fill="#183B5E"/>
<path d="M194.283 197.745C202.376 193.717 213.211 189.865 219.751 198.396L220.668 202.468C217.561 202.755 215.619 202.06 212.607 201.343C208.737 198.926 202.045 202.126 194.283 197.745Z" fill="#3D7DB3"/>
<path d="M185.836 198.352C190.175 199.4 189.971 199.257 194.283 197.745C202.045 202.126 208.737 198.926 212.607 201.343C201.175 200.967 194.411 206.165 188.083 205.282L186.856 203.031L185.836 198.352Z" fill="#0971B2"/>
<path d="M409.254 199.974C436.297 195.858 467.988 220.313 479.828 243.324C478.151 243.136 474.081 242.099 472.238 241.679C470.269 246.645 469.791 246.425 465.609 249.438C459.76 224.242 428.299 212.069 406.806 201.541L409.254 199.974Z" fill="white"/>
<path d="M38.526 216.484C41.5698 214.762 42.9173 213.946 46.2778 212.71C45.8683 214.475 43.9778 223.304 43.5265 224.463C43.2528 231.968 42.8985 239.439 43.0243 246.944C33.69 251.226 25.5145 254.636 15.5269 257.306C15.5556 253.035 15.3017 245.476 16.3005 241.635C17.4118 225.423 24.8247 223.117 38.526 216.484Z" fill="#183B5E"/>
<path d="M38.5266 216.484C41.5703 214.762 42.9178 213.946 46.2783 212.71C45.8689 214.475 43.9784 223.304 43.527 224.463C39.7935 226.339 36.0368 228.304 32.204 229.948C26.5977 233.877 21.6778 237.386 16.301 241.635C17.4124 225.423 24.8253 223.117 38.5266 216.484Z" fill="#9CD5F0"/>
<path d="M38.5259 216.484C41.5697 214.762 42.9172 213.946 46.2777 212.71C45.8682 214.475 43.9777 223.304 43.5264 224.463C39.7929 226.339 36.0362 228.304 32.2034 229.948C32.6923 225.633 36.1388 222.168 38.9 218.592L38.5259 216.484Z" fill="#59A8D6"/>
<path d="M298.455 143.348C304.604 140.755 312.146 136.892 318.551 141.295C315.581 146.515 303.437 144.264 297.854 143.867L298.455 143.348Z" fill="#9CD5F0"/>
<path d="M378.018 471.042C387.195 465.612 388.94 463.339 395.207 455.139C401.142 458.218 462.758 460.171 479.318 464.509C460.856 468.437 395.313 474.783 378.018 471.042Z" fill="#D2EEF7"/>
<path d="M135.442 456.53C142.6 465.083 145.13 467.367 155.468 471.958C136.975 475.578 73.1707 468.515 53.6292 464.376C74.2931 459.333 113.029 457.964 135.442 456.53Z" fill="#D2EEF7"/>
</svg>
