<svg width="512" height="512" viewBox="0 0 512 512" fill="none" xmlns="http://www.w3.org/2000/svg">
<path d="M315.15 10C324.241 10.7596 330.318 11.5076 339.283 13.0957C349.629 31.3828 348.559 29.1156 368.319 24.1439C376.34 28.7358 380.944 31.5784 387.377 38.7022C386.79 43.3632 386.307 48.0356 385.386 52.6505C391.048 55.5507 405.422 60.603 406.332 65.966C407.506 72.9632 407.183 88.9599 403.109 94.7833C400.232 96.406 398.092 97.3267 395.686 99.5363C419.486 128.239 425.539 137.733 437.946 172.984C456.854 184.078 473.334 192.974 488.353 209.293C524.628 248.698 517.458 305.47 478.525 339.903C482.046 363.899 482.403 382.22 475.394 405.767C470.86 421.039 473.047 428.692 453.643 425.159C456.244 435.355 458.649 442.053 453.609 451.997C439.752 472.321 425.252 474.772 406.228 488.318L405.008 489.215C402.027 479.801 398.92 470.169 395.847 460.801C389.172 440.419 386.261 427.437 404.525 413.132C402.396 411.832 400.647 411.82 398.069 411.325C393.27 409.657 391.842 409.634 388.862 405.859C386.905 400.45 388.298 395.547 389.368 389.77C377.56 403.902 372.957 409.277 355.752 416.723C352.057 428.899 349.249 438.727 337.119 445.253C335.197 446.265 333.264 447.244 331.296 448.187C334.035 470.123 353.611 463.229 357.328 475.808C353.335 483.15 347.673 482.54 341.297 485.003C319.557 493.427 304.688 498.307 298.128 470.709C295.102 460.801 287.403 455.679 277.206 456.761C259.771 458.672 258.528 480.331 248.711 492.599C233.635 511.415 197.038 502.611 190.397 480.71C185.046 463.045 188.671 438.244 161.246 441.087C143.189 442.951 143.454 467.752 125.593 468.787C116.984 469.271 108.71 464.288 101.287 460.501C94.4735 456.669 84.3805 453.562 84.0697 444.815C93.0809 436.84 104.935 451.905 120.851 423.444C107.639 411.429 112.542 408.932 107.639 394.086C106.603 390.967 95.6244 388.216 93.3802 381.495C91.5619 376.052 92.0797 374.889 87.9596 372.404L84.2654 378.02C79.9958 379.919 78.3155 379.539 73.4359 379.562L71.7096 379.55L71.2033 380.805L71.9743 382.105C87.5568 408.655 58.003 431.96 40.8783 450.604C35.0895 441.961 29.2546 433.364 23.3738 424.802C20.6117 422.696 14.9495 411.935 13.0276 408.414C11.3474 405.629 9.97784 400.105 8.99961 396.744C11.3589 386.191 18.9084 376.903 18.7473 373.75C11.1632 373.785 7.13529 372.703 0 370.021C6.18008 326.91 1.61114 329.109 20.37 288.944C-21.2448 213.885 33.087 152.061 107.11 133.509C144.455 58.6695 187.888 47.9666 267.401 45.4462C266.86 39.7034 266.066 33.1436 265.893 27.4584C272.752 22.2795 276.884 19.8513 284.664 15.8924C291.143 18.6544 299.118 22.6248 305.333 25.0185L315.15 10Z" fill="#082746"/>
<path d="M180.419 406.619C197.739 425.067 205.324 435.712 233.761 437.231C259.126 438.589 264.028 428.876 283.029 420.509C298.738 439.326 304.4 450.512 331.296 448.187C334.035 470.123 353.611 463.229 357.328 475.808C353.335 483.15 347.673 482.54 341.297 485.003C319.557 493.427 304.688 498.307 298.128 470.709C295.102 460.801 287.402 455.679 277.206 456.761C259.77 458.672 258.527 480.331 248.711 492.599C233.635 511.415 197.037 502.611 190.397 480.71C185.045 463.045 188.671 438.244 161.246 441.087C143.189 442.951 143.454 467.752 125.592 468.787C116.984 469.271 108.709 464.288 101.286 460.501C94.4734 456.669 84.3803 453.562 84.0696 444.815C93.0808 436.84 104.935 451.905 120.851 423.444C148.138 435.367 159.646 422.558 180.419 406.619Z" fill="#9CD5F0"/>
<path d="M18.7472 373.75C28.4834 365.096 51.5696 368.652 63.3888 372.622C66.6573 374.855 69.4423 376.328 71.7095 379.55L71.2032 380.805L71.9742 382.105C87.5567 408.655 58.0029 431.96 40.8782 450.604C35.0894 441.961 29.2545 433.364 23.3737 424.802C20.6116 422.696 14.9494 411.935 13.0275 408.414C11.3473 405.629 9.97774 400.105 8.99951 396.744C11.3588 386.191 18.9083 376.903 18.7472 373.75Z" fill="#FEFCDA"/>
<path d="M63.389 372.622C66.6574 374.855 69.4424 376.328 71.7096 379.55L71.2033 380.805L71.9743 382.105C87.5568 408.655 58.003 431.96 40.8783 450.604C35.0896 441.961 29.2546 433.364 23.3738 424.802C23.9722 424.169 25.4914 423.179 26.2624 422.627C32.1778 422.143 31.8325 423.651 36.6086 425.044C51.8689 429.509 46.2182 403.718 60.3046 396.456C57.7842 390.978 55.0568 387.572 51.5697 382.715C52.8011 379.09 52.6055 379.251 55.1834 376.478C59.4761 376.017 58.095 376.144 62.6294 378.756L63.389 372.622Z" fill="#F24F4A"/>
<path d="M51.5698 382.715C52.8012 379.09 52.6056 379.251 55.1835 376.478C59.4762 376.017 58.0951 376.144 62.6295 378.756C64.8737 385.535 67.0028 398.954 63.5848 405.64L62.1462 405.226C61.3406 402.084 60.8687 399.61 60.3048 396.456C57.7844 390.978 55.0569 387.572 51.5698 382.715Z" fill="#FDC57C"/>
<path d="M51.5694 382.715C55.0565 387.572 57.784 390.978 60.3043 396.456C46.2179 403.718 51.8686 429.509 36.6083 425.044C31.8323 423.651 32.1775 422.143 26.2622 422.627C25.4911 423.179 23.9719 424.169 23.3735 424.802C20.6115 422.696 14.9493 411.935 13.0273 408.414C13.5452 405.433 12.9468 406.734 15.2486 404.673C18.8968 404.904 20.3123 406.181 23.4541 408.103L24.7201 408.886L25.6406 407.482L24.1677 405.03C24.3403 399.483 24.3172 394.097 28.2531 390.253C32.822 391.83 40.107 409.277 44.7564 415.353C44.2846 410.048 44.6182 407.32 45.0555 401.934C46.6207 394.581 47.4494 389.022 51.5694 382.715Z" fill="#F76038"/>
<path d="M18.7472 373.75C28.4834 365.096 51.5696 368.652 63.3888 372.622L62.6292 378.756C58.0949 376.144 59.4759 376.017 55.1832 376.478C52.6053 379.251 52.801 379.09 51.5696 382.715C47.4495 389.022 46.6208 394.581 45.0557 401.934C45.6311 391.876 47.2309 374.556 36.5164 370.079C20.6807 370.954 12.6478 397.446 24.1678 405.03L25.6408 407.482L24.7202 408.886L23.4543 408.103C20.3125 406.181 18.8969 404.904 15.2487 404.674C12.947 406.734 13.5454 405.433 13.0275 408.414C11.3473 405.629 9.97774 400.105 8.99951 396.744C11.3588 386.191 18.9083 376.903 18.7472 373.75Z" fill="#FFCE73"/>
<path d="M398.069 411.325C406.551 410.508 412.823 407.85 421.178 408.897C429.165 410.462 435.023 411.809 442.457 415.434C446.704 417.667 452.239 420.107 453.643 425.159C456.244 435.355 458.649 442.053 453.609 451.997C439.752 472.321 425.252 474.772 406.228 488.318L405.008 489.215C402.028 479.801 398.92 470.169 395.848 460.801C389.173 440.419 386.261 427.437 404.525 413.132C402.396 411.832 400.647 411.82 398.069 411.325Z" fill="#FD6F3B"/>
<path d="M398.069 411.325C406.551 410.508 412.823 407.85 421.178 408.897C417.507 413.167 415.205 417.736 417.299 423.478C409.359 431.776 407.908 433.882 402.258 444.47L403.639 445.701L406.125 445.552C409.669 449.948 409.819 455.495 409.566 461.203C411.004 463.689 410.084 462.596 412.351 464.437C417.656 464.15 427.899 457.82 432.905 454.954L433.181 455.553L436.162 455.219L438.256 452.123C445.069 451.283 446.738 451.352 453.609 451.997C439.752 472.321 425.252 474.772 406.228 488.318L405.008 489.215C402.028 479.801 398.92 470.169 395.848 460.801C389.173 440.419 386.261 427.437 404.525 413.132C402.396 411.832 400.647 411.82 398.069 411.325Z" fill="#F24F4A"/>
<path d="M398.069 411.325C406.551 410.508 412.823 407.85 421.178 408.897C417.507 413.167 415.205 417.736 417.3 423.478C409.359 431.776 407.909 433.882 402.258 444.47C398.253 426.436 409.175 422.558 407.632 414.801L404.525 413.132C402.396 411.832 400.647 411.82 398.069 411.325Z" fill="#FFCE73"/>
<path d="M421.178 408.897C429.164 410.462 435.022 411.809 442.457 415.434C447.762 429.636 449.753 439.429 437.83 451.352C438.199 442.168 437.888 438.808 436.726 429.647C433.02 434.768 420.924 453.573 415.228 453.838L416.482 449.902C420.061 438.543 422.651 433.767 417.299 423.478C415.205 417.736 417.506 413.167 421.178 408.897Z" fill="#FEFCDA"/>
<path d="M121.438 144.914C132.946 106.292 156.884 78.3031 195.449 64.5158C207.855 60.0851 236.73 53.5366 249.044 56.3792C251.691 59.3599 250.84 58.4277 250.805 63.6871C250.333 83.4358 253.118 81.3067 270.945 87.3142L267.873 101.297C274.95 109.491 278.783 112.737 288.3 118.042C293.571 116.028 298.738 113.404 304.182 113.692C311.225 117.213 311.052 121.794 313.02 129.044C322.457 130.575 329.455 131.657 338.949 132.267C341.861 127.352 344.024 122.381 348.708 119.481C354.014 118.341 355.475 119.584 359.906 122.427C362.691 124.222 365.453 126.04 368.204 127.905C371.714 126.305 375.546 124.659 378.93 122.887C383.384 119.665 385.455 118.215 389.322 114.417C401.878 129.159 412.235 143.142 417.587 162.154C421.028 169.336 423.053 178.749 424.584 186.564C443.861 189.66 465.946 207.44 477.362 222.793C487.006 234.416 493.371 249.331 494.326 264.454C494.752 269.483 494.706 270.622 494.199 275.674C486.431 322.134 452.492 344.53 405.814 338.833C383.637 336.117 370.713 321.191 352.575 311.892C345.509 314.562 310.972 322.537 302.398 324.056C248.389 333.677 187.175 323.573 141.578 292.454C134.454 295.285 126.582 298.289 119.666 301.511C76.9229 314.274 26.7917 280.865 25.8595 235.406C25.6064 223.069 27.4822 215.082 31.2685 203.458C35.6302 194.367 36.4474 190.983 44.0316 183.79C66.1164 159.864 89.7089 150.6 121.438 144.914Z" fill="#A8EAFB"/>
<path d="M102.886 247.099C111.817 243.002 112.576 239.422 121.369 244.67C143.523 278.885 168.485 298.392 209.168 306.736C254.58 316.046 304.412 310.522 343.645 284.87C345.095 283.914 346.545 282.959 347.972 281.981C366.524 284.72 371.012 286.032 386.813 295.803C377.307 296.816 364.717 307.484 352.575 311.892C345.509 314.562 310.972 322.537 302.398 324.056C248.389 333.677 187.175 323.573 141.578 292.454C136.491 287.24 133.718 284.421 127.975 279.875C119.309 271.9 108.065 257.836 102.886 247.099Z" fill="#59A8D6"/>
<path d="M31.2685 203.458C47.7832 222.378 54.4237 269.022 92.4709 270.875C96.1767 271.232 95.8659 271.646 99.0538 270.484C90.1116 261.922 89.939 236.96 90.2267 225.21L92.586 226.36C94.2662 235.118 98.812 238.007 101.16 244.716L102.886 247.099C108.065 257.836 119.309 271.9 127.975 279.875C133.717 284.421 136.491 287.24 141.578 292.454C134.454 295.285 126.582 298.289 119.666 301.511C76.9229 314.274 26.7917 280.865 25.8595 235.406C25.6064 223.069 27.4822 215.082 31.2685 203.458Z" fill="#208FD4"/>
<path d="M105.683 275.249C115.385 280.117 117.456 279.944 127.975 279.875C133.718 284.421 136.491 287.24 141.578 292.454C134.454 295.285 126.582 298.289 119.666 301.511C119.148 298.012 109.274 286.297 105.683 275.249Z" fill="#0971B2"/>
<path d="M90.227 225.21L92.5863 226.36C94.2665 235.118 98.8123 238.007 101.16 244.716L99.3303 246.869C100.251 255.097 107.95 269.46 111.829 277.378C108.399 274.512 104.889 271.739 101.298 269.069C99.3534 270.012 100.021 269.437 99.0541 270.484C90.1119 261.922 89.9393 236.96 90.227 225.21Z" fill="#339BDE"/>
<path d="M414.997 303.479C450.881 307.196 477.765 293.087 487.49 257.261L488.79 257.077C490.309 259.873 491.414 263.061 494.326 264.454C494.752 269.483 494.705 270.622 494.199 275.674C486.431 322.134 452.492 344.53 405.814 338.833C383.637 336.117 370.713 321.191 352.575 311.892C364.717 307.484 377.307 296.816 386.813 295.803C397.389 298.254 398.644 302.593 410.659 300.867L414.1 303.433L414.997 303.479Z" fill="#208FD4"/>
<path d="M414.998 303.479C450.881 307.196 477.765 293.087 487.49 257.261L488.79 257.077C490.309 259.873 491.414 263.061 494.326 264.454C494.752 269.483 494.706 270.622 494.199 275.674C488.433 277.942 484.705 285.227 479.698 289.381C457.498 307.841 431.386 315.16 402.856 310.119L414.1 303.433L414.998 303.479Z" fill="#71BEE2"/>
<path d="M365.073 245.361C381.105 237.006 398.494 225.405 417.978 231.136C424.906 233.15 430.741 237.869 434.159 244.222C440.869 256.639 438.452 284.444 426.978 292.396C422.397 297.92 420.924 299.336 414.997 303.479L414.1 303.433L410.659 300.867C398.644 302.593 397.389 298.254 386.813 295.803C371.012 286.032 366.523 284.72 347.972 281.981C354.635 275.479 361.068 269.207 366.121 261.312C371.357 258.86 374.2 257.226 373.486 251.104C371.115 247.156 369.412 247.018 365.073 245.361Z" fill="#71BEE2"/>
<path d="M410.659 300.867C415.389 297.161 421.028 292.109 426.978 292.396C422.398 297.92 420.925 299.336 414.998 303.479L414.1 303.433L410.659 300.867Z" fill="#71BEE2"/>
<path d="M121.438 144.914C132.946 106.292 156.884 78.3031 195.449 64.5158C207.855 60.0851 236.73 53.5366 249.044 56.3792C251.691 59.3599 250.839 58.4277 250.805 63.6871L249.159 71.5591C242.289 74.1255 219.03 72.4106 208.615 78.9935C211.538 82.4231 215.094 84.0113 214.645 88.4191C213.172 102.724 189.706 111.01 177.461 109.019C169.382 107.696 166.148 105.072 161.833 98.9493C141.405 115.694 132.658 131.001 125.811 156.458C105.901 160.773 83.3213 166.021 68.5098 180.856L65.4601 180.407L66.1621 178.013C58.1522 178.301 51.7535 183.514 44.0312 183.79C66.1161 159.864 89.7086 150.6 121.438 144.914Z" fill="white"/>
<path d="M331.79 242.91C316.185 240.079 307.623 232.045 305.551 215.508C303.364 198.072 308.969 167.241 330.375 165.308C337.441 164.663 340.756 168.495 345.739 172.73C358.122 194.608 359.054 232.402 331.79 242.91Z" fill="#082746"/>
<path d="M326.106 175.769C340.802 176.425 340.365 186.783 332.827 196.127C319.212 195.172 317.992 184.791 326.106 175.769Z" fill="white"/>
<path d="M155.146 197.336C155.285 188.67 155.365 182.029 158.496 173.755C166.183 153.523 179.43 144.615 195.38 163.42C199.431 171.626 202.044 176.966 203.08 186.391C204.633 200.466 200.225 221.768 185.541 227.937C181.42 229.698 176.76 229.698 172.64 227.937C160.44 222.816 157.368 208.833 155.146 197.336Z" fill="#082746"/>
<path d="M177.668 161.648C190.926 165.342 190.961 174.583 182.813 184.009C168.462 181.373 167.184 171.073 177.668 161.648Z" fill="white"/>
<path d="M90.2268 225.21C92.0336 194.068 128.654 192.71 148.92 212.424L150.601 221.481C144.052 221.377 136.388 220.675 130.748 224.208C128.251 233.289 121.542 228.466 121.369 244.67C112.576 239.423 111.817 243.002 102.886 247.099L101.16 244.716C98.8122 238.007 94.2664 235.118 92.5861 226.36L90.2268 225.21Z" fill="#9CD5F0"/>
<path d="M44.0316 183.79C51.7538 183.514 58.1526 178.301 66.1625 178.013L65.4605 180.407C58.9237 187.231 54.5734 210.283 54.7575 220.123C55.0567 235.245 60.3622 243.83 70.4321 254.199C76.7158 260.667 88.2819 266.491 92.471 270.875C54.4238 269.022 47.7833 222.378 31.2686 203.458C35.6303 194.367 36.4475 190.983 44.0316 183.79Z" fill="#71BEE2"/>
<path d="M195.38 163.42L197.337 163.075C199.673 165.86 196.842 162.707 199.581 164.939C206.751 170.751 209.064 181.592 210.33 190.362C210.974 201.157 211.239 214.426 204.104 223.253C198.073 230.699 187.416 231.401 178.612 232.391C176.299 232.644 174.216 232.195 172.052 233.012C165.493 227.051 158.737 224.876 150.601 221.481L148.92 212.424C149.3 206.727 150.267 195.276 153.892 190.822L155.146 197.336C157.367 208.833 160.44 222.816 172.639 227.937C176.759 229.698 181.42 229.698 185.54 227.937C200.225 221.768 204.633 200.466 203.079 186.391C202.044 176.966 199.431 171.626 195.38 163.42Z" fill="white"/>
<path d="M345.739 172.731C367.674 178.381 364.947 226.027 357.835 242.956C349.802 243.381 343.829 244.659 336.521 248.169C334.484 245.787 333.621 246.823 331.791 242.91C359.054 232.402 358.122 194.608 345.739 172.731Z" fill="white"/>
<path d="M413.064 158.863L414.549 158.644L417.587 162.154C421.028 169.336 423.054 178.75 424.584 186.564C443.861 189.66 465.946 207.44 477.362 222.793L476.361 223.334C472.678 223.173 428.912 196.415 418.071 192.64C418.634 177.334 417.334 173.789 413.064 158.863Z" fill="white"/>
<path d="M130.748 224.208C136.387 220.675 144.052 221.377 150.601 221.481C158.737 224.876 165.493 227.051 172.052 233.012C159.922 244.774 133.971 241.506 130.748 224.208Z" fill="#F09BA4"/>
<path d="M357.835 242.956L365.074 245.361C369.413 247.018 371.116 247.156 373.487 251.104C374.2 257.226 371.358 258.86 366.121 261.312C353.059 261.047 340.469 263.073 336.521 248.169C343.829 244.659 349.802 243.381 357.835 242.956Z" fill="#F09BA4"/>
<path d="M389.322 114.417C401.878 129.159 412.235 143.142 417.587 162.154L414.549 158.644L413.064 158.863C403.903 134.752 398.77 132.704 378.93 122.887C383.383 119.665 385.455 118.215 389.322 114.417Z" fill="#D2EEF7"/>
<path d="M228.444 211.652C251.6 221.147 265.536 225.451 290.809 221.953C290.337 232.966 287.863 248.111 282.891 257.963C273.834 282.004 252.716 284.478 235.441 266.56C225.003 251.219 226.246 229.237 228.444 211.652Z" fill="#082746"/>
<path d="M236.581 258.699C248.596 247.145 269.07 241.529 279.761 257.525C281.787 257.594 280.739 257.456 282.891 257.963C273.834 282.004 252.716 284.478 235.442 266.56C235.637 263.061 235.522 262.071 236.581 258.699Z" fill="#F24F4A"/>
<path d="M279.761 257.525C281.787 257.595 280.739 257.456 282.891 257.963C273.834 282.004 252.716 284.478 235.442 266.56C235.637 263.061 235.522 262.071 236.581 258.699C243.302 282.936 267.976 273.683 279.761 257.525Z" fill="#082746"/>
<path d="M332.309 142.912C349.503 143.418 354.532 152.706 362.714 166.194C356.776 161.118 352.668 157.827 346.292 153.35C334.38 147.113 320.789 152.073 308.878 155.79C317.336 148.839 321.318 145.018 332.309 142.912Z" fill="#011020"/>
<path d="M177.715 131.3C193.332 130.759 198.05 136.191 207.165 147.4C197.383 142.371 193.159 139.885 182.376 137.986C170.602 139.045 165.308 142.728 154.847 148.206C163.34 138.734 165.93 135.949 177.715 131.3Z" fill="#02192D"/>
<path d="M232.299 84.1724C237.605 84.7133 244.89 84.886 246.869 90.4101C243.935 94.346 243.992 93.3678 238.721 95.6005C237.467 95.7616 236.212 95.8766 234.946 95.9341C229.906 96.2103 223.588 95.773 223.956 89.3743C226.361 86.1289 228.536 85.7031 232.299 84.1724Z" fill="white"/>
<path d="M183.929 340.997C199.075 341.756 217.281 347.223 232.864 349.087C251.692 351.32 268.149 349.95 286.977 349.927C286.816 355.693 283.939 377.433 287.069 381.726C291.753 388.136 315.886 404.063 323.643 408.955C326.67 410.854 339.41 410.934 342.897 415.25C345.348 424.963 334.081 433.698 325.887 435.551C303.526 440.615 303.077 410.865 290.602 402.291C286.724 399.633 278.369 404.743 274.456 406.687C269.058 409.242 262.982 412.281 257.4 414.133C212.609 429.037 206.843 401.221 176.921 387.008L175.448 386.329C166.828 396.974 155.688 413.351 141.831 416.366C125.857 419.853 122.416 403.891 121.312 392.06C124.177 392.141 134.915 392.463 136.986 391.876C154.364 386.927 155.124 383.095 173.583 383.06C188.337 367.95 185.92 361.16 183.929 340.997Z" fill="#183B5E"/>
<path d="M284.882 24.4087C298.278 32.3496 311.812 36.8148 320.133 19.6671L334.357 21.4049L339.03 31.2908C345.935 34.5247 347.834 35.1576 355.084 37.114C364.371 34.5361 368.687 32.925 376.087 40.348L375.903 42.6727C375.454 48.2314 374.257 53.3871 378.274 57.8524C384.914 65.1949 398.736 62.686 395.606 75.8057C385.536 81.1572 384.178 70.9721 373.475 88.3155L381.462 99.9967C378.377 101.792 374.2 105.233 370.759 104.025C354.324 98.2704 345.739 89.3628 336.74 110.838L321.238 109.687C319.626 101.251 320.34 98.5121 312.008 94.6107C311.662 94.5417 311.317 94.4611 310.96 94.392L309.211 94.0582C298.865 92.0442 297.461 93.4253 287.989 97.9711C284.571 95.1861 283.731 94.5416 280.969 91.1811C280.774 86.382 282.293 85.3578 284.778 80.6738L279.749 71.5937C272.487 64.8382 257.158 66.5069 262.153 53.9971C265.824 51.6148 270.45 51.845 274.95 51.5458C284.226 42.9949 282.534 40.1178 275.065 30.934L284.882 24.4087Z" fill="#B8D0DF"/>
<path d="M331.94 91.4459C341.93 92.6428 364.809 93.9547 373.475 88.3155L381.462 99.9967C378.377 101.792 374.2 105.233 370.759 104.025C354.324 98.2704 345.739 89.3628 336.739 110.838L321.237 109.687C319.626 101.251 320.34 98.5122 312.008 94.6108C318.521 92.4472 325.104 91.5725 331.94 91.4459Z" fill="#59A8D6"/>
<path d="M284.779 80.6738C297.991 76.3696 314.632 82.0895 326.532 88.2696C328.385 89.2478 330.191 90.3066 331.941 91.4459C325.105 91.5725 318.522 92.4472 312.008 94.6108C311.663 94.5417 311.317 94.4611 310.961 94.392L309.211 94.0582C298.865 92.0443 297.461 93.4253 287.99 97.9712C284.572 95.1861 283.732 94.5416 280.97 91.1811C280.774 86.3821 282.293 85.3578 284.779 80.6738Z" fill="#7DA9C5"/>
<path d="M279.749 71.5937C272.487 64.8382 257.158 66.5069 262.153 53.9971C265.824 51.6148 270.45 51.845 274.95 51.5458C276.757 58.1632 278.817 64.8267 279.749 71.5937Z" fill="#71BEE2"/>
<path d="M316.784 45.078C322.365 44.7098 327.924 44.0883 333.851 45.6419C343.541 48.1738 361.011 58.7386 355.924 71.2023C353.715 76.6459 348.018 79.5806 342.643 81.7327C313.262 86.4742 281.694 59.7284 316.784 45.078Z" fill="#082746"/>
<path d="M330.134 332.595C348.133 331.226 368.895 340.767 377.71 356.867C385.34 370.815 375.42 390.15 363.198 398.021C357.444 401.727 349.376 403.73 344.6 397.342C345.762 398.931 329.386 396.502 326.451 395.375C306.415 381.334 327.418 376.466 323.551 363.645C317.417 366.523 317.693 379.873 304.965 381.046C282.063 372.219 304.102 358.893 313.55 351.228C310.88 349.709 309.372 349.225 307.612 346.763L308.601 344.116C314.701 338.258 322.331 335.473 330.134 332.595Z" fill="white"/>
<path d="M153.029 364.267C152.638 384.131 131.347 380.955 116.927 379.297C101.494 379.585 91.9302 351.539 96.994 340.088C108.859 313.215 160.164 308.232 172.099 336.658C171.143 339.892 170.442 339.294 166.437 341.595C167.104 343.713 190.144 362.322 169.371 372.945C162.949 376.225 158.749 367.731 157.172 362.219L153.029 364.267Z" fill="white"/>
<path d="M153.029 364.267C152.822 360.573 152.246 355.59 154.065 352.54C156.435 354.727 156.55 358.743 157.172 362.218L153.029 364.267Z" fill="#183B5E"/>
<path d="M416.102 361.586C433.549 360.469 447.267 357.109 462.965 349.444C465.186 350.986 464.254 350.56 465.416 354.255C467.522 368.698 466.118 378.308 462.861 392.475C451.548 385.984 444.609 381.864 431.546 379.689L414.226 378.86C414.445 373.037 415.331 367.374 416.102 361.586Z" fill="#9CD5F0"/>
<path d="M416.102 361.586C433.549 360.469 447.267 357.109 462.965 349.444C465.186 350.986 464.254 350.56 465.416 354.255C456.232 360.009 437.98 368.571 432.202 375.177C432.018 376.328 431.604 378.607 431.546 379.689L414.226 378.86C414.445 373.037 415.331 367.374 416.102 361.586Z" fill="#83ADCC"/>
<path d="M24.1562 315.621C26.1472 310.718 28.6215 305.884 30.9348 301.108C37.5637 307.219 39.6697 308.796 47.3229 313.572C54.228 316.599 68.8784 320.811 72.0547 326.646L71.157 332.193C70.1558 337.878 71.1225 337.648 67.8886 341.262C62.6638 342.804 57.2892 340.168 51.2818 338.672C39.2323 337.613 31.1878 338.292 19.311 339.881C20.7611 331.146 22.0962 324.217 24.1562 315.621Z" fill="#59A8D6"/>
<path d="M19.311 339.881C20.7611 331.146 22.0962 324.217 24.1562 315.62L28.4028 318.233L27.7699 319.303C40.9932 318.521 40.9011 316.495 52.6398 324.459C53.4569 328.798 54.953 333.608 53.5604 337.613L51.2818 338.672C39.2323 337.613 31.1878 338.292 19.311 339.881Z" fill="#9CD5F0"/>
<path d="M52.6401 324.459C57.0248 326.542 69.4079 330.294 71.1572 332.193C70.156 337.878 71.1228 337.648 67.8889 341.262C62.664 342.804 57.2894 340.168 51.282 338.672L53.5606 337.613C54.9532 333.608 53.4572 328.798 52.6401 324.459Z" fill="#83ADCC"/>
<path d="M24.1567 315.621C26.1477 310.718 28.6221 305.884 30.9353 301.108C37.5642 307.219 39.6702 308.796 47.3234 313.572C44.4348 314.803 32.8111 317.094 28.4033 318.233L24.1567 315.621Z" fill="#D2EEF7"/>
<path d="M412.431 387.837C424.653 386.778 435.494 388.285 446.807 393.487C451.71 395.754 463.794 403.626 460.594 410.186L457.993 409.058C447.555 403.753 439.902 401.14 428.773 398.16C422.144 396.399 406.619 396.468 404.559 394.73C406.159 391.646 409.45 389.908 412.431 387.837Z" fill="#71BEE2"/>
<path d="M35.2159 346.532C53.6525 345.451 64.2748 347.948 75.9905 362.506C70.2477 360.722 64.6777 359.48 58.8429 358.098C49.3829 356.165 38.1045 355.797 28.4603 356.326C23.7534 356.579 20.3928 357.719 15.5938 357.132L15.9736 355.187C22.7867 348.19 25.6523 348.443 35.2159 346.532Z" fill="#71BEE2"/>
</svg>
