<svg width="1024" height="1024" viewBox="0 0 1024 1024" fill="none" xmlns="http://www.w3.org/2000/svg">
<g clip-path="url(#clip0_7_6)">
<path d="M660.666 102.928C697.095 99.5082 697.838 129.811 717.097 136.999C722.273 138.932 728.045 138.139 733.446 137.891C746.59 137.287 760.879 138.228 772.011 146.004C801.74 166.775 777.795 187.666 786.684 203.272C795.283 218.37 816.566 225.246 819.688 244.736C821.819 258.036 815.049 267.84 807.795 278.048C813.574 284.489 819.618 290.428 825.242 297.091C843.858 319.303 859.079 344.151 870.406 370.825C955.202 402.553 1009.1 463.695 1022.27 554.356C1038.62 666.844 960.384 749.164 855.013 772.134C850.633 785.197 835.707 805.517 825.23 814.651C802.873 834.145 777.901 840.063 748.904 838.446C739.838 850.961 732.389 859.929 719.369 868.874C677.37 897.738 618.714 892.569 581.164 858.672C572.11 850.5 565.506 841.402 558.689 831.413C521.057 837.502 476.162 835.13 438.728 828.64C428.653 844.665 414.772 857.952 398.321 867.322C344.207 895.631 269.42 878.173 251.191 814.397C247.023 799.812 249.246 784.731 252.578 770.21C204.988 752.981 174.621 729.853 148.101 686.132C87.2791 677.4 25.9462 621.56 32.5466 556.309C33.7252 544.662 34.7929 533.222 37.7157 521.816C14.4228 493.875 -11.0338 455.732 5.98509 418.148C11.9846 405.102 22.9508 394.995 36.4438 390.072C63.4479 379.977 94.1545 388.795 119.413 400.338C139.854 383.939 163.131 371.427 188.089 363.426C193.834 347.729 213.778 317.634 224.075 304.312C276.259 237.937 352.137 194.354 435.781 182.713C449.376 180.807 463.084 179.803 476.812 179.706C484.736 179.592 493.653 180.239 501.532 179.335C529.68 176.108 517.391 149.953 532.879 131.466C545.38 116.54 560.206 113.603 578.922 118.231C589.144 120.758 602.353 128.075 612.894 124.817C632.466 118.768 638.079 105.798 660.666 102.928Z" fill="black"/>
<path d="M637.172 772.205C653.953 769.879 692.403 799.774 697.084 818.131C701.296 834.639 680.67 856.887 665.907 860.462C656.902 861.942 643.237 854.826 636.147 849.151C627.317 842.085 606.869 826.284 604.595 814.328C603.356 807.831 607.319 798.981 611.029 794.037C619.105 783.273 623.947 774.389 637.172 772.205Z" fill="white"/>
<path d="M317.721 764.855C334.147 760.271 374.034 790.552 382.138 805.44C413.487 863 249.63 848.771 286.5 786.043C292.619 775.632 304.841 768.767 317.721 764.855Z" fill="white"/>
<path d="M713.928 660.042C741.676 656.47 805.25 702.392 812.99 730.591C819.956 755.949 785.851 790.124 761.44 795.616C746.551 797.89 723.958 786.959 712.233 778.242C697.634 767.388 663.825 743.116 660.064 724.75C658.016 714.769 664.568 701.175 670.702 693.581C684.056 677.045 692.062 663.397 713.928 660.042Z" fill="white"/>
<path d="M645.701 432.021C669.38 431.257 676.192 474.028 648.021 482.162C627.14 480.37 620.67 458.696 630.346 441.656C633.51 436.095 639.543 433.225 645.701 432.021Z" fill="white"/>
<path d="M399.291 431.404C426.631 430.09 431.234 473.779 404.226 481.51C379.674 482.998 371.889 440.642 399.291 431.404Z" fill="white"/>
<path fill-rule="evenodd" clip-rule="evenodd" d="M480.344 226.963C483.67 252.864 496.882 252.779 513.908 266.968C516.488 269.12 519.475 271.916 521.039 274.914C526.004 284.435 516.571 299.424 527.179 318.039C536.395 334.209 552.914 343.142 571.445 341.08C579.952 340.135 591.741 335.549 599.988 339.073C611.789 344.115 615.628 362.813 634.844 367.808C648.516 371.361 662.915 369.042 674.356 360.614C678.937 357.238 683.052 353.043 687.999 350.194C700.213 343.151 706.212 350.079 718.018 352.984C729.359 355.773 742.454 353.895 752.378 347.744C764.586 340.175 772.367 328.073 775.697 314.287C803.692 339.754 822.364 376.274 834.36 411.732C851.782 415.544 864.145 418.927 880.48 427.07C921.976 447.656 953.525 483.983 968.095 527.966C980.049 564.149 980.019 607.159 962.368 641.47C946.936 671.464 920.553 695.47 890.268 710.027C880.102 714.917 870.443 718.077 859.829 721.609C848.222 696.871 848.146 692.115 866.654 671.357C881.861 668.263 891.03 666.291 905.222 658.933C926.681 647.801 944.893 629.582 952.201 606.131C959.451 582.869 955.892 555.361 944.492 533.953C930.955 508.193 907.63 488.964 879.759 480.597C855.743 473.312 829.802 476.019 807.8 488.105C784.511 500.864 770.312 521.54 762.939 546.633C758.883 561.934 759.527 574.731 759.568 590.245C749.892 600.91 738.894 613.673 728.238 623.062C720.026 623.304 710.922 622.696 702.663 624.397C676.091 629.872 645.729 659.234 630.528 680.736C617.304 699.45 615.598 716.76 620.09 738.646C596.034 750.079 585.997 758.796 568.741 779.306C561.066 780.398 553.185 782.388 545.321 783.292C462.079 792.835 384.775 770.334 318.741 720.173C269.268 727.236 223.985 712.413 196.786 668.919C201.95 666.433 210.173 660.498 215.219 657.244C243.295 639.144 268.828 615.031 280.772 582.946C290.982 556.035 289.78 526.117 277.444 500.109C257.557 457.482 213.456 437.763 171.727 422.773C191.779 411.116 202.39 408.347 224.31 403.791C234.207 374.985 256.185 340.046 276.463 317.768C327.8 261.367 395.487 231.985 470.558 227.245C473.138 227.01 477.623 227.029 480.344 226.963ZM690.137 416.33C677.704 406.54 661.438 401.278 645.505 402.615C580.017 410.151 561.799 501.373 606.819 542.788C621.79 556.56 636.207 561.19 656.22 559.856C674.119 557.718 688.087 549.874 700.012 536.15C729.365 502.371 725.806 444.399 690.137 416.33ZM425.175 412.963C412.48 404.142 398.425 400.374 383.028 402.011C315.489 410.757 299.168 508.211 351.059 546.621C363.913 556.135 381.005 561.603 397.02 558.922C465.109 547.59 479.433 450.664 425.175 412.963Z" fill="white"/>
<path d="M848.92 508.938C857.45 509.262 864.422 510.78 871.418 515.865C868.159 520.938 860.355 531.662 855.425 535.961C836.05 552.863 836.25 574.525 862.214 584.133C877.333 589.731 889.011 572.174 898.905 564.001C903.02 560.605 910.039 556.495 915.193 553.294C918.682 558.201 920.99 563.257 921.763 569.239C926.575 606.479 900.074 627.107 866.5 632.57C862.333 633.007 846.926 632.812 844.888 634.607C833.488 644.611 820.83 659.127 810.617 670.141C797.948 660.267 782.675 649.483 769.598 639.774C774.977 634.412 798.342 604.828 800.397 599.234C799.341 592.017 798.284 584.906 797.546 577.648C794.01 542.794 811.308 511.524 848.92 508.938Z" fill="white"/>
<path d="M62.0396 428.488C83.4725 426.732 111.807 437.078 132.004 444.878C168.084 458.813 214.642 477.946 235.916 512.038C246.976 529.554 250.587 550.761 245.948 570.952C240.592 593.227 225.967 608.771 206.864 620.34C183.781 633.173 153.575 641.139 128.903 628.809C98.5739 613.649 76.5864 580.968 81.5445 546.373C83.6745 531.515 88.9653 521.434 95.4156 508.205C79.4819 492.298 31.0687 455.873 54.9334 430.254C57.1896 429.566 59.7267 429.03 62.0396 428.488Z" fill="white"/>
<path d="M659.125 139.732C673.654 138.448 679.015 154.579 687.864 163.223C702.174 177.202 714.571 169.534 731.479 168.448C736.243 168.143 741.953 170.767 745.17 174.262C753.819 183.674 743.333 195.299 743.239 205.535C743.08 222.316 763.459 226.529 773.023 236.113C775.107 238.2 776.358 241.701 775.962 244.784C773.801 261.531 753.736 257.235 742.779 267.04C731.231 277.372 738.25 289.759 737.093 303.181C732.896 309.361 730.7 310.243 723.787 312.478C713.273 310.241 703.337 304.492 692.929 303.286C669.333 300.553 668.216 329.351 643.769 326.062C630.31 320.827 629.931 302.077 614.198 296.033C599.333 290.322 580.815 304.976 570.672 299.204C552.607 288.504 568.369 272.056 564.627 256.963C560.724 241.235 531.442 239.208 527.853 226.691C522.239 207.117 551.219 206.954 560.659 196.216C571.799 183.538 559.414 173.466 565.211 160.902C577.302 143.683 599.511 163.701 617.31 162.449C639.885 160.86 638.823 143.889 659.125 139.732Z" fill="white"/>
</g>
<defs>
<clipPath id="clip0_7_6">
<rect width="1024" height="1024" fill="white"/>
</clipPath>
</defs>
</svg>
